<mxfile host="app.diagrams.net" modified="2023-11-23T17:02:26.417Z" agent="Mozilla/5.0 (X11; Linux x86_64) AppleWebKit/537.36 (KHTML, like Gecko) Chrome/117.0.0.0 Safari/537.36" etag="eqyPRmgPopp0b697RyDR" version="21.7.5" type="github">
  <diagram name="PÃ¡gina-1" id="JByHQCaHkthjjEXHzt8R">
    <mxGraphModel dx="880" dy="486" grid="1" gridSize="10" guides="1" tooltips="1" connect="1" arrows="1" fold="1" page="1" pageScale="1" pageWidth="827" pageHeight="1169" math="0" shadow="0">
      <root>
        <mxCell id="0" />
        <mxCell id="1" parent="0" />
        <mxCell id="8r3DNfeRhFZXAlWkI8G8-7" style="edgeStyle=orthogonalEdgeStyle;rounded=0;orthogonalLoop=1;jettySize=auto;html=1;exitX=0.25;exitY=1;exitDx=0;exitDy=0;entryX=0.5;entryY=0;entryDx=0;entryDy=0;" edge="1" parent="1" source="8r3DNfeRhFZXAlWkI8G8-1" target="8r3DNfeRhFZXAlWkI8G8-3">
          <mxGeometry relative="1" as="geometry" />
        </mxCell>
        <mxCell id="8r3DNfeRhFZXAlWkI8G8-8" style="edgeStyle=orthogonalEdgeStyle;rounded=0;orthogonalLoop=1;jettySize=auto;html=1;exitX=0.75;exitY=1;exitDx=0;exitDy=0;entryX=0.5;entryY=0;entryDx=0;entryDy=0;" edge="1" parent="1" source="8r3DNfeRhFZXAlWkI8G8-1" target="8r3DNfeRhFZXAlWkI8G8-4">
          <mxGeometry relative="1" as="geometry" />
        </mxCell>
        <mxCell id="8r3DNfeRhFZXAlWkI8G8-9" style="edgeStyle=orthogonalEdgeStyle;rounded=0;orthogonalLoop=1;jettySize=auto;html=1;exitX=1;exitY=0.75;exitDx=0;exitDy=0;entryX=0.5;entryY=0;entryDx=0;entryDy=0;" edge="1" parent="1" source="8r3DNfeRhFZXAlWkI8G8-1" target="8r3DNfeRhFZXAlWkI8G8-5">
          <mxGeometry relative="1" as="geometry" />
        </mxCell>
        <mxCell id="8r3DNfeRhFZXAlWkI8G8-10" style="edgeStyle=orthogonalEdgeStyle;rounded=0;orthogonalLoop=1;jettySize=auto;html=1;exitX=0;exitY=0.75;exitDx=0;exitDy=0;" edge="1" parent="1" source="8r3DNfeRhFZXAlWkI8G8-1" target="8r3DNfeRhFZXAlWkI8G8-2">
          <mxGeometry relative="1" as="geometry" />
        </mxCell>
        <mxCell id="8r3DNfeRhFZXAlWkI8G8-1" value="DRIVE" style="whiteSpace=wrap;html=1;aspect=fixed;fillColor=#e1d5e7;strokeColor=#9673a6;" vertex="1" parent="1">
          <mxGeometry x="400" y="40" width="80" height="80" as="geometry" />
        </mxCell>
        <mxCell id="8r3DNfeRhFZXAlWkI8G8-14" style="edgeStyle=orthogonalEdgeStyle;rounded=0;orthogonalLoop=1;jettySize=auto;html=1;exitX=0.5;exitY=1;exitDx=0;exitDy=0;entryX=0.5;entryY=0;entryDx=0;entryDy=0;" edge="1" parent="1" source="8r3DNfeRhFZXAlWkI8G8-2" target="8r3DNfeRhFZXAlWkI8G8-11">
          <mxGeometry relative="1" as="geometry" />
        </mxCell>
        <mxCell id="8r3DNfeRhFZXAlWkI8G8-16" style="edgeStyle=orthogonalEdgeStyle;rounded=0;orthogonalLoop=1;jettySize=auto;html=1;exitX=0;exitY=0.25;exitDx=0;exitDy=0;entryX=1;entryY=0.5;entryDx=0;entryDy=0;" edge="1" parent="1" source="8r3DNfeRhFZXAlWkI8G8-2" target="8r3DNfeRhFZXAlWkI8G8-15">
          <mxGeometry relative="1" as="geometry" />
        </mxCell>
        <mxCell id="8r3DNfeRhFZXAlWkI8G8-18" style="edgeStyle=orthogonalEdgeStyle;rounded=0;orthogonalLoop=1;jettySize=auto;html=1;exitX=0;exitY=0.5;exitDx=0;exitDy=0;entryX=1;entryY=0.5;entryDx=0;entryDy=0;" edge="1" parent="1" source="8r3DNfeRhFZXAlWkI8G8-2" target="8r3DNfeRhFZXAlWkI8G8-17">
          <mxGeometry relative="1" as="geometry" />
        </mxCell>
        <mxCell id="8r3DNfeRhFZXAlWkI8G8-2" value="Admin" style="whiteSpace=wrap;html=1;aspect=fixed;fillColor=#dae8fc;strokeColor=#6c8ebf;" vertex="1" parent="1">
          <mxGeometry x="160" y="200" width="80" height="80" as="geometry" />
        </mxCell>
        <mxCell id="8r3DNfeRhFZXAlWkI8G8-3" value="Labs" style="whiteSpace=wrap;html=1;aspect=fixed;fillColor=#dae8fc;strokeColor=#6c8ebf;" vertex="1" parent="1">
          <mxGeometry x="320" y="200" width="80" height="80" as="geometry" />
        </mxCell>
        <mxCell id="8r3DNfeRhFZXAlWkI8G8-4" value="Projetos" style="whiteSpace=wrap;html=1;aspect=fixed;fillColor=#dae8fc;strokeColor=#6c8ebf;" vertex="1" parent="1">
          <mxGeometry x="480" y="200" width="80" height="80" as="geometry" />
        </mxCell>
        <mxCell id="8r3DNfeRhFZXAlWkI8G8-21" style="edgeStyle=orthogonalEdgeStyle;rounded=0;orthogonalLoop=1;jettySize=auto;html=1;exitX=0.5;exitY=1;exitDx=0;exitDy=0;entryX=0.5;entryY=0;entryDx=0;entryDy=0;entryPerimeter=0;" edge="1" parent="1" source="8r3DNfeRhFZXAlWkI8G8-5" target="8r3DNfeRhFZXAlWkI8G8-19">
          <mxGeometry relative="1" as="geometry" />
        </mxCell>
        <mxCell id="8r3DNfeRhFZXAlWkI8G8-5" value="Eventos" style="whiteSpace=wrap;html=1;aspect=fixed;fillColor=#dae8fc;strokeColor=#6c8ebf;" vertex="1" parent="1">
          <mxGeometry x="640" y="200" width="80" height="80" as="geometry" />
        </mxCell>
        <mxCell id="8r3DNfeRhFZXAlWkI8G8-13" value="s" style="edgeStyle=orthogonalEdgeStyle;rounded=0;orthogonalLoop=1;jettySize=auto;html=1;exitX=0.5;exitY=1;exitDx=0;exitDy=0;entryX=0.5;entryY=0;entryDx=0;entryDy=0;entryPerimeter=0;" edge="1" parent="1" source="8r3DNfeRhFZXAlWkI8G8-11" target="8r3DNfeRhFZXAlWkI8G8-12">
          <mxGeometry relative="1" as="geometry" />
        </mxCell>
        <mxCell id="8r3DNfeRhFZXAlWkI8G8-11" value="Atas" style="whiteSpace=wrap;html=1;aspect=fixed;fillColor=#d5e8d4;strokeColor=#82b366;" vertex="1" parent="1">
          <mxGeometry x="160" y="320" width="80" height="80" as="geometry" />
        </mxCell>
        <mxCell id="8r3DNfeRhFZXAlWkI8G8-12" value="Semestres" style="strokeWidth=2;html=1;shape=mxgraph.flowchart.multi-document;whiteSpace=wrap;fillColor=#f5f5f5;fontColor=#333333;strokeColor=#666666;" vertex="1" parent="1">
          <mxGeometry x="156" y="440" width="88" height="60" as="geometry" />
        </mxCell>
        <mxCell id="8r3DNfeRhFZXAlWkI8G8-15" value="Docs" style="whiteSpace=wrap;html=1;aspect=fixed;fillColor=#d5e8d4;strokeColor=#82b366;" vertex="1" parent="1">
          <mxGeometry y="120" width="80" height="80" as="geometry" />
        </mxCell>
        <mxCell id="8r3DNfeRhFZXAlWkI8G8-17" value="Forms" style="whiteSpace=wrap;html=1;aspect=fixed;fillColor=#d5e8d4;strokeColor=#82b366;" vertex="1" parent="1">
          <mxGeometry y="240" width="80" height="80" as="geometry" />
        </mxCell>
        <mxCell id="8r3DNfeRhFZXAlWkI8G8-19" value="Semestres" style="strokeWidth=2;html=1;shape=mxgraph.flowchart.multi-document;whiteSpace=wrap;fillColor=#f8cecc;strokeColor=#b85450;" vertex="1" parent="1">
          <mxGeometry x="636" y="320" width="88" height="60" as="geometry" />
        </mxCell>
      </root>
    </mxGraphModel>
  </diagram>
</mxfile>
